<?xml version="1.0" encoding="UTF-8" standalone="no"?>
<!DOCTYPE svg PUBLIC "-//W3C//DTD SVG 1.1//EN"
 "http://www.w3.org/Graphics/SVG/1.1/DTD/svg11.dtd">
<!-- Generated by graphviz version 2.40.1 (0)
 -->
<!-- Title: snakemake_dag Pages: 1 -->
<svg width="135pt" height="260pt"
 viewBox="0.00 0.00 135.00 260.00" xmlns="http://www.w3.org/2000/svg" xmlns:xlink="http://www.w3.org/1999/xlink">
<g id="graph0" class="graph" transform="scale(1 1) rotate(0) translate(4 256)">
<title>snakemake_dag</title>
<polygon fill="#ffffff" stroke="transparent" points="-4,4 -4,-256 131,-256 131,4 -4,4"/>
<!-- 0 -->
<g id="node1" class="node">
<title>0</title>
<path fill="none" stroke="#d6d856" stroke-width="2" d="M78.5,-36C78.5,-36 48.5,-36 48.5,-36 42.5,-36 36.5,-30 36.5,-24 36.5,-24 36.5,-12 36.5,-12 36.5,-6 42.5,0 48.5,0 48.5,0 78.5,0 78.5,0 84.5,0 90.5,-6 90.5,-12 90.5,-12 90.5,-24 90.5,-24 90.5,-30 84.5,-36 78.5,-36"/>
<text text-anchor="middle" x="63.5" y="-15.5" font-family="sans" font-size="10.00" fill="#000000">all</text>
</g>
<!-- 1 -->
<g id="node2" class="node">
<title>1</title>
<path fill="none" stroke="#56d8d8" stroke-width="2" d="M78.5,-108C78.5,-108 48.5,-108 48.5,-108 42.5,-108 36.5,-102 36.5,-96 36.5,-96 36.5,-84 36.5,-84 36.5,-78 42.5,-72 48.5,-72 48.5,-72 78.5,-72 78.5,-72 84.5,-72 90.5,-78 90.5,-84 90.5,-84 90.5,-96 90.5,-96 90.5,-102 84.5,-108 78.5,-108"/>
<text text-anchor="middle" x="63.5" y="-87.5" font-family="sans" font-size="10.00" fill="#000000">gatk</text>
</g>
<!-- 1&#45;&gt;0 -->
<g id="edge1" class="edge">
<title>1&#45;&gt;0</title>
<path fill="none" stroke="#c0c0c0" stroke-width="2" d="M63.5,-71.8314C63.5,-64.131 63.5,-54.9743 63.5,-46.4166"/>
<polygon fill="#c0c0c0" stroke="#c0c0c0" stroke-width="2" points="67.0001,-46.4132 63.5,-36.4133 60.0001,-46.4133 67.0001,-46.4132"/>
</g>
<!-- 2 -->
<g id="node3" class="node">
<title>2</title>
<path fill="none" stroke="#d85656" stroke-width="2" d="M115,-180C115,-180 12,-180 12,-180 6,-180 0,-174 0,-168 0,-168 0,-156 0,-156 0,-150 6,-144 12,-144 12,-144 115,-144 115,-144 121,-144 127,-150 127,-156 127,-156 127,-168 127,-168 127,-174 121,-180 115,-180"/>
<text text-anchor="middle" x="63.5" y="-159.5" font-family="sans" font-size="10.00" fill="#000000">remove_clipped_reads</text>
</g>
<!-- 2&#45;&gt;1 -->
<g id="edge2" class="edge">
<title>2&#45;&gt;1</title>
<path fill="none" stroke="#c0c0c0" stroke-width="2" d="M63.5,-143.8314C63.5,-136.131 63.5,-126.9743 63.5,-118.4166"/>
<polygon fill="#c0c0c0" stroke="#c0c0c0" stroke-width="2" points="67.0001,-118.4132 63.5,-108.4133 60.0001,-118.4133 67.0001,-118.4132"/>
</g>
<!-- 3 -->
<g id="node4" class="node">
<title>3</title>
<path fill="none" stroke="#59d856" stroke-width="2" d="M88,-252C88,-252 39,-252 39,-252 33,-252 27,-246 27,-240 27,-240 27,-228 27,-228 27,-222 33,-216 39,-216 39,-216 88,-216 88,-216 94,-216 100,-222 100,-228 100,-228 100,-240 100,-240 100,-246 94,-252 88,-252"/>
<text text-anchor="middle" x="63.5" y="-231.5" font-family="sans" font-size="10.00" fill="#000000">align_reads</text>
</g>
<!-- 3&#45;&gt;2 -->
<g id="edge3" class="edge">
<title>3&#45;&gt;2</title>
<path fill="none" stroke="#c0c0c0" stroke-width="2" d="M63.5,-215.8314C63.5,-208.131 63.5,-198.9743 63.5,-190.4166"/>
<polygon fill="#c0c0c0" stroke="#c0c0c0" stroke-width="2" points="67.0001,-190.4132 63.5,-180.4133 60.0001,-190.4133 67.0001,-190.4132"/>
</g>
</g>
</svg>
